# xmcd
#
# Track frame offsets:
#	150
#	750
#	16369
#	38781
#	50090
#	71992
#	94353
#	112910
#	134429
#	148826
#	174395
#	197089
#	206317
#	230005
#	245990
#	265158
#
# Disc length: 3717 seconds
#
# Revision: 0
# Processed by: cddbd v1.5.2PL0 Copyright (c) Steve Scherf et al.
# Submitted via: dBpowerAMP V4.0
#
DISCID=e80e8310
DTITLE=Rooster Blues - Rooster Blues
DYEAR=1900
DGENRE=
TTITLE0=Sunrise
TTITLE1=Down Is On My Way
TTITLE2=Three
TTITLE3=Waiting For Another
TTITLE4=Slip Your Mind
TTITLE5=Concrete Blues
TTITLE6=Sweet Darlene
TTITLE7=I Heard You Don't Miss Me Anymore
TTITLE8=Pale Rider
TTITLE9=Cold Feet Blues
TTITLE10=Yoko Oh No
TTITLE11=Pain
TTITLE12=Rockin' Chair Blues
TTITLE13=White Wings
TTITLE14=Brother's Keeper
TTITLE15=The Freedom Outro
EXTD=
EXTT0=
EXTT1=
EXTT2=
EXTT3=
EXTT4=
EXTT5=
EXTT6=
EXTT7=
EXTT8=
EXTT9=
EXTT10=
EXTT11=
EXTT12=
EXTT13=
EXTT14=
EXTT15=
PLAYORDER=
